<?xml version="1.0" encoding="UTF-8"?>
<svg width="760px" height="116px" viewBox="0 0 760 116" version="1.1" xmlns="http://www.w3.org/2000/svg" xmlns:xlink="http://www.w3.org/1999/xlink">
    <title>Artboard</title>
    <g id="Artboard" stroke="none" stroke-width="1" fill="none" fill-rule="evenodd">
        <g id="B’-Wallpapers" transform="translate(3.061523, 1.403320)" fill-rule="nonzero">
            <path d="M0,0 L0,91.5966797 L16.3764766,91.5966797 L38.4033203,91.5966797 C44.9202474,91.5966797 50.5167643,90.5493164 55.1928711,88.4545898 C59.8689779,86.3598633 63.4765625,83.3764648 66.015625,79.5043945 C68.5546875,75.6323242 69.8242188,71.0302734 69.8242188,65.6982422 L69.8242188,65.5712891 C69.8242188,61.5087891 68.914388,57.8800456 67.0947266,54.6850586 C65.2750651,51.4900716 62.7360026,48.898112 59.4775391,46.9091797 C56.2190755,44.9202474 52.4527995,43.7353516 48.1787109,43.3544922 L48.1787109,43.0371094 C51.4371745,42.5716146 54.3782552,41.3761393 57.0019531,39.4506836 C59.625651,37.5252279 61.6886393,35.1342773 63.190918,32.277832 C64.6931966,29.4213867 65.4443359,26.3427734 65.4443359,23.0419922 L65.4443359,22.9150391 C65.4443359,18.2600911 64.3123372,14.21875 62.0483398,10.7910156 C59.7843424,7.36328125 56.6105143,4.70784505 52.5268555,2.82470703 C48.4431966,0.94156901 43.6083984,0 38.0224609,0 L16.3769531,0 L8.18847656,0 L0,0 Z M16.3764766,12.6956797 L33.8964844,12.6953125 C38.7630208,12.6953125 42.5398763,13.7744141 45.2270508,15.9326172 C47.9142253,18.0908203 49.2578125,21.1376953 49.2578125,25.0732422 L49.2578125,25.2001953 C49.2578125,29.5589193 47.7132161,32.9020182 44.6240234,35.2294922 C41.5348307,37.5569661 37.0279948,38.7207031 31.1035156,38.7207031 L16.3764766,38.7216797 L16.3764766,12.6956797 Z M16.3764766,50.5916797 L33.7060547,50.5908203 C37.9801432,50.5908203 41.5559896,51.1092122 44.4335938,52.1459961 C47.3111979,53.1827799 49.4799805,54.7485352 50.9399414,56.8432617 C52.3999023,58.9379883 53.1298828,61.5299479 53.1298828,64.6191406 L53.1298828,64.7460938 C53.1298828,69.358724 51.5535482,72.8710938 48.4008789,75.2832031 C45.2482096,77.6953125 40.6673177,78.9013672 34.6582031,78.9013672 L16.3764766,78.9016797 L16.3764766,50.5916797 Z M87.1799294,33.6425781 L96.510984,0 L81.1496559,0 L76.198484,33.6425781 L87.1799294,33.6425781 Z" id="B’" fill="#FF375F"></path>
            <path d="M168.728809,91.5966797 L187.200489,25.8349609 L187.581348,25.8349609 L206.053028,91.5966797 L221.858692,91.5966797 L246.360645,0 L229.412403,0 L213.479786,69.1259766 L213.162403,69.1259766 L194.817676,0 L179.964161,0 L161.619434,69.1259766 L161.302051,69.1259766 L145.369434,0 L128.357715,0 L152.923145,91.5966797 L168.728809,91.5966797 Z M265.889343,92.7392578 C268.851583,92.7392578 271.633972,92.273763 274.236511,91.3427734 C276.83905,90.4117839 279.155945,89.078776 281.187195,87.34375 C283.218445,85.608724 284.868835,83.577474 286.138367,81.25 L286.519226,81.25 L286.519226,91.5966797 L302.261413,91.5966797 L302.261413,45.3222656 C302.261413,40.7942708 301.129415,36.858724 298.865417,33.515625 C296.60142,30.172526 293.406433,27.569987 289.280456,25.7080078 C285.15448,23.8460286 280.277364,22.9150391 274.649109,22.9150391 C268.978536,22.9150391 264.080261,23.8248698 259.954285,25.6445312 C255.828308,27.4641927 252.601583,29.9503581 250.274109,33.1030273 C247.946635,36.2556966 246.613627,39.8209635 246.275085,43.7988281 L246.211609,44.5605469 L260.811218,44.5605469 L260.938171,43.9892578 C261.488301,41.492513 262.884786,39.4506836 265.127624,37.8637695 C267.370463,36.2768555 270.353861,35.4833984 274.07782,35.4833984 C278.098002,35.4833984 281.176615,36.4672852 283.31366,38.4350586 C285.450704,40.402832 286.519226,43.0794271 286.519226,46.4648438 L286.518477,51.0936797 L268.936218,52.1777344 C260.811218,52.6432292 254.516459,54.621582 250.051941,58.112793 C245.587423,61.6040039 243.355163,66.3330078 243.355163,72.2998047 L243.355163,72.4267578 C243.355163,76.4046224 244.296732,79.9275716 246.179871,82.9956055 C248.063009,86.0636393 250.707865,88.4545898 254.114441,90.168457 C257.521016,91.8823242 261.445984,92.7392578 265.889343,92.7392578 Z M270.586609,80.6787109 C267.116557,80.6787109 264.334167,79.8852539 262.239441,78.2983398 C260.144714,76.7114258 259.097351,74.5426432 259.097351,71.7919922 L259.097351,71.7285156 C259.097351,69.0625 260.134135,66.9254557 262.207703,65.3173828 C264.28127,63.7093099 267.264669,62.7783203 271.157898,62.5244141 L286.518477,61.5696797 L286.519226,66.6503906 C286.519226,69.3164062 285.820984,71.7073568 284.424499,73.8232422 C283.028015,75.9391276 281.134298,77.6106771 278.743347,78.8378906 C276.352397,80.0651042 273.633484,80.6787109 270.586609,80.6787109 Z M330.343563,91.5966797 L330.343563,0 L314.537899,0 L314.537899,91.5966797 L330.343563,91.5966797 Z M359.112347,91.5966797 L359.112347,0 L343.306683,0 L343.306683,91.5966797 L359.112347,91.5966797 Z M387.373319,113.813477 L387.373319,80.234375 L387.754178,80.234375 C389.023709,82.8580729 390.695259,85.1220703 392.768826,87.0263672 C394.842394,88.9306641 397.243924,90.390625 399.973416,91.40625 C402.702908,92.421875 405.654569,92.9296875 408.828397,92.9296875 C414.456652,92.9296875 419.333768,91.5226237 423.459744,88.7084961 C427.585721,85.8943685 430.780708,81.8741862 433.044705,76.6479492 C435.308703,71.4217122 436.440701,65.2115885 436.440701,58.0175781 L436.440701,57.9541016 C436.440701,50.7177734 435.308703,44.4759115 433.044705,39.2285156 C430.780708,33.9811198 427.564562,29.9503581 423.396268,27.1362305 C419.227974,24.3221029 414.287381,22.9150391 408.57449,22.9150391 C405.400662,22.9150391 402.470161,23.4440104 399.782987,24.5019531 C397.095812,25.5598958 394.747179,27.0515951 392.737088,28.9770508 C390.726997,30.9025065 389.066027,33.219401 387.754178,35.9277344 L387.373319,35.9277344 L387.373319,24.3115234 L371.631131,24.3115234 L371.631131,113.813477 L387.373319,113.813477 Z M403.940701,79.6630859 C400.682238,79.6630859 397.804634,78.7744141 395.307889,76.9970703 C392.811144,75.2197266 390.85395,72.7124023 389.436307,69.4750977 C388.018664,66.237793 387.309842,62.4186198 387.309842,58.0175781 L387.309842,57.9541016 C387.309842,53.5107422 388.018664,49.6704102 389.436307,46.4331055 C390.85395,43.1958008 392.811144,40.6884766 395.307889,38.9111328 C397.804634,37.1337891 400.682238,36.2451172 403.940701,36.2451172 C407.2838,36.2451172 410.193143,37.1126302 412.668729,38.8476562 C415.144315,40.5826823 417.048612,43.0688477 418.381619,46.3061523 C419.714627,49.543457 420.381131,53.4261068 420.381131,57.9541016 L420.381131,58.0175781 C420.381131,62.4186198 419.714627,66.237793 418.381619,69.4750977 C417.048612,72.7124023 415.154894,75.2197266 412.700467,76.9970703 C410.24604,78.7744141 407.326118,79.6630859 403.940701,79.6630859 Z M465.628406,92.7392578 C468.590646,92.7392578 471.373035,92.273763 473.975574,91.3427734 C476.578113,90.4117839 478.895008,89.078776 480.926258,87.34375 C482.957508,85.608724 484.607898,83.577474 485.87743,81.25 L486.258289,81.25 L486.258289,91.5966797 L502.000476,91.5966797 L502.000476,45.3222656 C502.000476,40.7942708 500.868478,36.858724 498.60448,33.515625 C496.340483,30.172526 493.145496,27.569987 489.019519,25.7080078 C484.893543,23.8460286 480.016427,22.9150391 474.388172,22.9150391 C468.717599,22.9150391 463.819324,23.8248698 459.693348,25.6445312 C455.567371,27.4641927 452.340646,29.9503581 450.013172,33.1030273 C447.685698,36.2556966 446.35269,39.8209635 446.014148,43.7988281 L445.950672,44.5605469 L460.550281,44.5605469 L460.677234,43.9892578 C461.227364,41.492513 462.623849,39.4506836 464.866687,37.8637695 C467.109526,36.2768555 470.092924,35.4833984 473.816883,35.4833984 C477.837065,35.4833984 480.915678,36.4672852 483.052723,38.4350586 C485.189767,40.402832 486.258289,43.0794271 486.258289,46.4648438 L486.257477,51.0936797 L468.675281,52.1777344 C460.550281,52.6432292 454.255522,54.621582 449.791004,58.112793 C445.326486,61.6040039 443.094226,66.3330078 443.094226,72.2998047 L443.094226,72.4267578 C443.094226,76.4046224 444.035795,79.9275716 445.918933,82.9956055 C447.802071,86.0636393 450.446928,88.4545898 453.853504,90.168457 C457.260079,91.8823242 461.185047,92.7392578 465.628406,92.7392578 Z M470.325672,80.6787109 C466.85562,80.6787109 464.07323,79.8852539 461.978504,78.2983398 C459.883777,76.7114258 458.836414,74.5426432 458.836414,71.7919922 L458.836414,71.7285156 C458.836414,69.0625 459.873198,66.9254557 461.946765,65.3173828 C464.020333,63.7093099 467.003732,62.7783203 470.896961,62.5244141 L486.257477,61.5696797 L486.258289,66.6503906 C486.258289,69.3164062 485.560047,71.7073568 484.163562,73.8232422 C482.767078,75.9391276 480.873361,77.6106771 478.48241,78.8378906 C476.091459,80.0651042 473.372547,80.6787109 470.325672,80.6787109 Z M529.574813,113.813477 L529.574813,80.234375 L529.955673,80.234375 C531.225204,82.8580729 532.896753,85.1220703 534.970321,87.0263672 C537.043889,88.9306641 539.445419,90.390625 542.174911,91.40625 C544.904403,92.421875 547.856063,92.9296875 551.029891,92.9296875 C556.658147,92.9296875 561.535262,91.5226237 565.661239,88.7084961 C569.787216,85.8943685 572.982203,81.8741862 575.2462,76.6479492 C577.510197,71.4217122 578.642196,65.2115885 578.642196,58.0175781 L578.642196,57.9541016 C578.642196,50.7177734 577.510197,44.4759115 575.2462,39.2285156 C572.982203,33.9811198 569.766057,29.9503581 565.597762,27.1362305 C561.429468,24.3221029 556.488876,22.9150391 550.775985,22.9150391 C547.602157,22.9150391 544.671656,23.4440104 541.984481,24.5019531 C539.297307,25.5598958 536.948674,27.0515951 534.938583,28.9770508 C532.928492,30.9025065 531.267522,33.219401 529.955673,35.9277344 L529.574813,35.9277344 L529.574813,24.3115234 L513.832626,24.3115234 L513.832626,113.813477 L529.574813,113.813477 Z M546.142196,79.6630859 C542.883733,79.6630859 540.006128,78.7744141 537.509384,76.9970703 C535.012639,75.2197266 533.055445,72.7124023 531.637802,69.4750977 C530.220158,66.237793 529.511337,62.4186198 529.511337,58.0175781 L529.511337,57.9541016 C529.511337,53.5107422 530.220158,49.6704102 531.637802,46.4331055 C533.055445,43.1958008 535.012639,40.6884766 537.509384,38.9111328 C540.006128,37.1337891 542.883733,36.2451172 546.142196,36.2451172 C549.485295,36.2451172 552.394637,37.1126302 554.870223,38.8476562 C557.345809,40.5826823 559.250106,43.0688477 560.583114,46.3061523 C561.916122,49.543457 562.582626,53.4261068 562.582626,57.9541016 L562.582626,58.0175781 C562.582626,62.4186198 561.916122,66.237793 560.583114,69.4750977 C559.250106,72.7124023 557.356389,75.2197266 554.901962,76.9970703 C552.447535,78.7744141 549.527613,79.6630859 546.142196,79.6630859 Z M617.541815,92.9296875 C621.900539,92.9296875 625.793768,92.347819 629.221502,91.184082 C632.649237,90.0203451 635.611476,88.4440104 638.108221,86.4550781 C640.604966,84.4661458 642.593898,82.2338867 644.075018,79.7583008 C645.556138,77.2827148 646.571763,74.7542318 647.121893,72.1728516 L647.248846,71.4746094 L632.522284,71.4746094 L632.39533,71.9189453 C631.887518,73.4423828 630.988267,74.860026 629.697577,76.171875 C628.406886,77.483724 626.767075,78.5522461 624.778143,79.3774414 C622.789211,80.2026367 620.482896,80.6152344 617.859198,80.6152344 C614.346828,80.6152344 611.321112,79.8429362 608.782049,78.2983398 C606.242987,76.7537435 604.285793,74.5320638 602.910467,71.6333008 C601.666125,69.0106104 600.9847,65.8942854 600.866191,62.2843258 L600.854477,61.8266797 L647.947088,61.8261719 L647.947088,56.7480469 C647.947088,49.9772135 646.688136,44.0527344 644.170233,38.9746094 C641.652329,33.8964844 638.055324,29.9503581 633.379217,27.1362305 C628.70311,24.3221029 623.17007,22.9150391 616.780096,22.9150391 C610.347804,22.9150391 604.772446,24.375 600.054022,27.2949219 C595.335597,30.2148438 591.675116,34.309082 589.072577,39.5776367 C586.470037,44.8461914 585.168768,51.0139974 585.168768,58.0810547 L585.168768,58.1445312 C585.168768,65.2539062 586.459458,71.4111328 589.040838,76.6162109 C591.622218,81.8212891 595.335597,85.8414714 600.180975,88.6767578 C605.026353,91.5120443 610.813299,92.9296875 617.541815,92.9296875 Z M632.594477,51.2896797 L601.044477,51.2896797 L601.056335,51.1875525 C601.354701,48.577669 601.972745,46.2628729 602.910467,44.2431641 C604.285793,41.2809245 606.19009,39.0486654 608.623358,37.5463867 C611.056626,36.0441081 613.839015,35.2929688 616.970526,35.2929688 C620.059718,35.2929688 622.789211,36.0229492 625.159002,37.4829102 C627.528794,38.9428711 629.390773,41.1328125 630.74494,44.0527344 C631.686969,46.0839844 632.301336,48.473615 632.58804,51.2216262 L632.594477,51.2896797 Z M672.908317,91.5966797 L672.908317,52.5585938 C672.908317,49.2154948 673.479606,46.3802083 674.622184,44.0527344 C675.764762,41.7252604 677.415153,39.9584961 679.573356,38.7524414 C681.731559,37.5463867 684.29178,36.9433594 687.25402,36.9433594 C688.608187,36.9433594 689.867139,37.0279948 691.030876,37.1972656 C692.194613,37.3665365 693.093864,37.578125 693.728629,37.8320312 L693.728629,23.5498047 C693.136182,23.3805339 692.395622,23.2324219 691.50695,23.1054688 C690.618278,22.9785156 689.687288,22.9150391 688.713981,22.9150391 C684.820752,22.9150391 681.53055,24.0681966 678.843376,26.3745117 C676.156201,28.6808268 674.304801,31.8652344 673.289176,35.9277344 L672.908317,35.9277344 L672.908317,24.3115234 L657.166129,24.3115234 L657.166129,91.5966797 L672.908317,91.5966797 Z M727.18191,92.9296875 C732.683212,92.9296875 737.560327,92.0515951 741.813257,90.2954102 C746.066187,88.5392253 749.398706,86.0636393 751.810816,82.8686523 C754.222925,79.6736654 755.42898,75.9602865 755.42898,71.7285156 L755.42898,71.6650391 C755.42898,66.7985026 753.94786,62.9158529 750.98562,60.0170898 C748.023381,57.1183268 743.05105,54.8860677 736.068628,53.3203125 L724.896753,50.8447266 C721.426701,50.0406901 718.961695,48.9827474 717.501734,47.6708984 C716.041773,46.3590495 715.311792,44.7509766 715.311792,42.8466797 L715.311792,42.7832031 C715.311792,41.1328125 715.766708,39.6940104 716.676538,38.4667969 C717.586369,37.2395833 718.898218,36.2874349 720.612085,35.6103516 C722.325952,34.9332682 724.346623,34.5947266 726.674097,34.5947266 C730.355738,34.5947266 733.254501,35.472819 735.370386,37.2290039 C737.486271,38.9851888 738.713485,41.2174479 739.052027,43.9257812 L739.115503,44.4335938 L753.842066,44.4335938 L753.778589,43.7353516 C753.609318,39.8421224 752.435002,36.3297526 750.25564,33.1982422 C748.076278,30.0667318 744.997665,27.569987 741.0198,25.7080078 C737.041936,23.8460286 732.260035,22.9150391 726.674097,22.9150391 C721.299748,22.9150391 716.581324,23.7825521 712.518824,25.5175781 C708.456324,27.2526042 705.303654,29.6647135 703.060816,32.7539062 C700.817977,35.843099 699.696558,39.4401042 699.696558,43.5449219 L699.696558,43.6083984 C699.696558,48.601888 701.31521,52.6855469 704.552515,55.859375 C707.78982,59.0332031 712.624618,61.3183594 719.05691,62.7148438 L730.228785,65.1904297 C733.741154,65.9944661 736.174423,67.0206706 737.528589,68.269043 C738.882756,69.5174154 739.559839,71.1360677 739.559839,73.125 L739.559839,73.1884766 C739.559839,74.8388672 739.062606,76.2776693 738.06814,77.5048828 C737.073674,78.7320964 735.66661,79.6630859 733.846949,80.2978516 C732.027287,80.9326172 729.826766,81.25 727.245386,81.25 C723.225204,81.25 720.104273,80.4459635 717.882593,78.8378906 C715.660913,77.2298177 714.25385,74.9658203 713.661402,72.0458984 L713.534449,71.4746094 L697.982691,71.4746094 L698.046167,72.0458984 C698.55398,76.1930339 699.982202,79.8429362 702.330835,82.9956055 C704.679468,86.1482747 707.937932,88.5921224 712.106226,90.3271484 C716.27452,92.0621745 721.299748,92.9296875 727.18191,92.9296875 Z" id="Wallpapers" fill="#000000"></path>
        </g>
    </g>
</svg>