<?xml version="1.0" encoding="UTF-8"?>
<svg width="745px" height="120px" viewBox="0 0 745 120" version="1.1" xmlns="http://www.w3.org/2000/svg" xmlns:xlink="http://www.w3.org/1999/xlink">
    <title>B’ Portfolio</title>
    <g id="Web-Site" stroke="none" stroke-width="1" fill="none" fill-rule="evenodd">
        <g id="B’-Portfolio" fill-rule="nonzero">
            <path d="M47.3599874,118.326693 C71.4705264,118.326693 86.109068,105.896414 86.109068,85.8167331 L86.109068,85.6573705 C86.109068,70.5179283 75.306294,59.2031873 59.4152569,57.7689243 L59.4152569,57.3705179 C71.5488074,55.6972112 80.707681,44.6215139 80.707681,32.2709163 L80.707681,32.1115538 C80.707681,14.6613546 67.4781969,3.34661355 46.8903016,3.34661355 L0,3.34661355 L0,118.326693 L47.3599874,118.326693 Z M38.3576757,51.9521912 L20.1964905,51.9521912 L20.1964905,19.3625498 L41.8020385,19.3625498 C53.779027,19.3625498 60.7460334,24.940239 60.7460334,34.9003984 L60.7460334,35.059761 C60.7460334,45.8964143 52.9179363,51.9521912 38.3576757,51.9521912 Z M42.7414101,102.310757 L20.1964905,102.310757 L20.1964905,66.8525896 L41.5671955,66.8525896 C57.3799517,66.8525896 65.5211726,72.9083665 65.5211726,84.4621514 L65.5211726,84.6215139 C65.5211726,96.1752988 57.5365136,102.310757 42.7414101,102.310757 Z M108.732269,45.5776892 L120.16129,3.34661355 L101.217295,3.34661355 L95.1113796,45.5776892 L108.732269,45.5776892 Z" id="B’" fill="#FF375F"></path>
            <path d="M188.422297,118.326693 L188.422297,80.3187251 L211.750026,80.3187251 C234.60807,80.3187251 250.185983,64.8605578 250.185983,41.9123506 L250.185983,41.752988 C250.185983,18.7250996 234.60807,3.34661355 211.750026,3.34661355 L168.225806,3.34661355 L168.225806,118.326693 L188.422297,118.326693 Z M206.740044,63.7450199 L188.422297,63.7450199 L188.422297,20.1593625 L206.740044,20.1593625 C221.222024,20.1593625 229.676369,28.0478088 229.676369,41.8326693 L229.676369,41.9920319 C229.676369,55.7768924 221.222024,63.7450199 206.740044,63.7450199 Z M296.528318,120 C320.8737,120 336.686456,103.505976 336.686456,76.0956175 L336.686456,75.936255 C336.686456,48.685259 320.638857,32.1115538 296.450037,32.1115538 C272.339498,32.1115538 256.37018,48.8446215 256.37018,75.936255 L256.37018,76.0956175 C256.37018,103.426295 272.104655,120 296.528318,120 Z M296.606599,103.984064 C284.159924,103.984064 276.253546,93.8645418 276.253546,76.0956175 L276.253546,75.936255 C276.253546,58.4063745 284.316486,48.2071713 296.450037,48.2071713 C308.81843,48.2071713 316.803089,58.3266932 316.803089,75.936255 L316.803089,76.0956175 C316.803089,93.7848606 308.896711,103.984064 296.606599,103.984064 Z M368.703373,118.326693 L368.703373,69.3227092 C368.703373,56.812749 375.357255,49.7211155 386.394872,49.7211155 C389.682673,49.7211155 392.65735,50.1992032 394.30125,50.8366534 L394.30125,32.9083665 C392.813912,32.5099602 390.543764,32.1115538 388.117054,32.1115538 C378.566775,32.1115538 371.67805,38.247012 369.094778,48.4462151 L368.703373,48.4462151 L368.703373,33.8645418 L349.211411,33.8645418 L349.211411,118.326693 L368.703373,118.326693 Z M435.163917,120 C439.077966,120 442.522328,119.601594 444.792477,119.282869 L444.792477,104.38247 C443.4617,104.462151 441.974362,104.701195 440.095618,104.701195 C432.97205,104.701195 429.371125,102.071713 429.371125,93.7848606 L429.371125,49.1633466 L444.792477,49.1633466 L444.792477,33.8645418 L429.371125,33.8645418 L429.371125,12.4302789 L409.56604,12.4302789 L409.56604,33.8645418 L397.823894,33.8645418 L397.823894,49.1633466 L409.56604,49.1633466 L409.56604,95.4581673 C409.56604,112.828685 417.785542,120 435.163917,120 Z M482.99359,118.326693 L482.99359,49.1633466 L499.276032,49.1633466 L499.276032,33.8645418 L482.602186,33.8645418 L482.602186,26.374502 C482.602186,19.5219124 486.124829,15.936255 493.718083,15.936255 C495.83167,15.936255 498.023537,16.0956175 499.589156,16.3346614 L499.589156,2.47011952 C497.162446,1.99203187 493.013555,1.67330677 489.177787,1.67330677 C471.173164,1.67330677 463.501629,9.32270916 463.501629,25.8167331 L463.501629,33.8645418 L452.150888,33.8645418 L452.150888,49.1633466 L463.501629,49.1633466 L463.501629,118.326693 L482.99359,118.326693 Z M542.252285,120 C566.597667,120 582.410423,103.505976 582.410423,76.0956175 L582.410423,75.936255 C582.410423,48.685259 566.362824,32.1115538 542.174004,32.1115538 C518.063465,32.1115538 502.094147,48.8446215 502.094147,75.936255 L502.094147,76.0956175 C502.094147,103.426295 517.828622,120 542.252285,120 Z M542.330566,103.984064 C529.883892,103.984064 521.977514,93.8645418 521.977514,76.0956175 L521.977514,75.936255 C521.977514,58.4063745 530.040454,48.2071713 542.174004,48.2071713 C554.542398,48.2071713 562.527057,58.3266932 562.527057,75.936255 L562.527057,76.0956175 C562.527057,93.7848606 554.620679,103.984064 542.330566,103.984064 Z M614.975307,118.326693 L614.975307,3.34661355 L595.483346,3.34661355 L595.483346,118.326693 L614.975307,118.326693 Z M641.903961,21.752988 C648.009877,21.752988 652.706735,16.812749 652.706735,10.9163347 C652.706735,4.86055777 648.009877,0 641.903961,0 C635.798046,0 631.022906,4.86055777 631.022906,10.9163347 C631.022906,16.812749 635.798046,21.752988 641.903961,21.752988 Z M651.610802,118.326693 L651.610802,33.8645418 L632.11884,33.8645418 L632.11884,118.326693 L651.610802,118.326693 Z M704.841862,120 C729.187244,120 745,103.505976 745,76.0956175 L745,75.936255 C745,48.685259 728.952401,32.1115538 704.763581,32.1115538 C680.653042,32.1115538 664.683724,48.8446215 664.683724,75.936255 L664.683724,76.0956175 C664.683724,103.426295 680.418199,120 704.841862,120 Z M704.920143,103.984064 C692.473469,103.984064 684.56709,93.8645418 684.56709,76.0956175 L684.56709,75.936255 C684.56709,58.4063745 692.63003,48.2071713 704.763581,48.2071713 C717.131974,48.2071713 725.116633,58.3266932 725.116633,75.936255 L725.116633,76.0956175 C725.116633,93.7848606 717.210255,103.984064 704.920143,103.984064 Z" id="Portfolio" fill="#FFFFFF"></path>
        </g>
    </g>
</svg>