<?xml version="1.0" encoding="UTF-8"?>
<svg width="701px" height="111px" viewBox="0 0 701 111" version="1.1" xmlns="http://www.w3.org/2000/svg" xmlns:xlink="http://www.w3.org/1999/xlink">
    <title>B’ Portfolio</title>
    <g id="Web-Site" stroke="none" stroke-width="1" fill="none" fill-rule="evenodd">
        <g id="B’-Portfolio" transform="translate(0.301758, 0.235352)" fill-rule="nonzero">
            <path d="M44.3115234,108.764648 C66.8701172,108.764648 80.5664062,97.3388672 80.5664062,78.8818359 L80.5664062,78.7353516 C80.5664062,64.8193359 70.4589844,54.4189453 55.5908203,53.1005859 L55.5908203,52.734375 C66.9433594,51.1962891 75.5126953,41.015625 75.5126953,29.6630859 L75.5126953,29.5166016 C75.5126953,13.4765625 63.1347656,3.07617188 43.8720703,3.07617188 L0,3.07617188 L0,108.764648 L44.3115234,108.764648 Z M35.8886719,47.7539062 L18.8964844,47.7539062 L18.8964844,17.7978516 L39.1113281,17.7978516 C50.3173828,17.7978516 56.8359375,22.9248047 56.8359375,32.0800781 L56.8359375,32.2265625 C56.8359375,42.1875 49.5117188,47.7539062 35.8886719,47.7539062 Z M39.9902344,94.0429688 L18.8964844,94.0429688 L18.8964844,61.4501953 L38.8916016,61.4501953 C53.6865234,61.4501953 61.3037109,67.0166016 61.3037109,77.6367188 L61.3037109,77.7832031 C61.3037109,88.4033203 53.8330078,94.0429688 39.9902344,94.0429688 Z M101.733398,41.8945312 L112.426758,3.07617188 L94.7021484,3.07617188 L88.9892578,41.8945312 L101.733398,41.8945312 Z" id="B’" fill="#FF375F"></path>
            <path d="M176.293945,108.764648 L176.293945,73.828125 L198.120117,73.828125 C219.506836,73.828125 234.082031,59.6191406 234.082031,38.5253906 L234.082031,38.3789062 C234.082031,17.2119141 219.506836,3.07617188 198.120117,3.07617188 L157.397461,3.07617188 L157.397461,108.764648 L176.293945,108.764648 Z M193.432617,58.59375 L176.293945,58.59375 L176.293945,18.5302734 L193.432617,18.5302734 C206.982422,18.5302734 214.892578,25.78125 214.892578,38.4521484 L214.892578,38.5986328 C214.892578,51.2695312 206.982422,58.59375 193.432617,58.59375 Z M277.441406,110.302734 C300.219727,110.302734 315.014648,95.1416016 315.014648,69.9462891 L315.014648,69.7998047 C315.014648,44.7509766 300,29.5166016 277.368164,29.5166016 C254.80957,29.5166016 239.868164,44.8974609 239.868164,69.7998047 L239.868164,69.9462891 C239.868164,95.0683594 254.589844,110.302734 277.441406,110.302734 Z M277.514648,95.5810547 C265.869141,95.5810547 258.47168,86.2792969 258.47168,69.9462891 L258.47168,69.7998047 C258.47168,53.6865234 266.015625,44.3115234 277.368164,44.3115234 C288.94043,44.3115234 296.411133,53.6132812 296.411133,69.7998047 L296.411133,69.9462891 C296.411133,86.2060547 289.013672,95.5810547 277.514648,95.5810547 Z M344.970703,108.764648 L344.970703,63.7207031 C344.970703,52.2216797 351.196289,45.703125 361.523438,45.703125 C364.599609,45.703125 367.382812,46.1425781 368.920898,46.7285156 L368.920898,30.2490234 C367.529297,29.8828125 365.405273,29.5166016 363.134766,29.5166016 C354.199219,29.5166016 347.753906,35.15625 345.336914,44.53125 L344.970703,44.53125 L344.970703,31.1279297 L326.733398,31.1279297 L326.733398,108.764648 L344.970703,108.764648 Z M410.375977,110.302734 C414.038086,110.302734 417.260742,109.936523 419.384766,109.643555 L419.384766,95.9472656 C418.139648,96.0205078 416.748047,96.2402344 414.990234,96.2402344 C408.325195,96.2402344 404.956055,93.8232422 404.956055,86.2060547 L404.956055,45.1904297 L419.384766,45.1904297 L419.384766,31.1279297 L404.956055,31.1279297 L404.956055,11.4257812 L386.425781,11.4257812 L386.425781,31.1279297 L375.439453,31.1279297 L375.439453,45.1904297 L386.425781,45.1904297 L386.425781,87.7441406 C386.425781,103.710938 394.116211,110.302734 410.375977,110.302734 Z M455.126953,108.764648 L455.126953,45.1904297 L470.361328,45.1904297 L470.361328,31.1279297 L454.760742,31.1279297 L454.760742,24.2431641 C454.760742,17.9443359 458.056641,14.6484375 465.161133,14.6484375 C467.138672,14.6484375 469.189453,14.7949219 470.654297,15.0146484 L470.654297,2.27050781 C468.383789,1.83105469 464.501953,1.53808594 460.913086,1.53808594 C444.067383,1.53808594 436.889648,8.56933594 436.889648,23.7304688 L436.889648,31.1279297 L426.269531,31.1279297 L426.269531,45.1904297 L436.889648,45.1904297 L436.889648,108.764648 L455.126953,108.764648 Z M510.571289,110.302734 C533.349609,110.302734 548.144531,95.1416016 548.144531,69.9462891 L548.144531,69.7998047 C548.144531,44.7509766 533.129883,29.5166016 510.498047,29.5166016 C487.939453,29.5166016 472.998047,44.8974609 472.998047,69.7998047 L472.998047,69.9462891 C472.998047,95.0683594 487.719727,110.302734 510.571289,110.302734 Z M510.644531,95.5810547 C498.999023,95.5810547 491.601562,86.2792969 491.601562,69.9462891 L491.601562,69.7998047 C491.601562,53.6865234 499.145508,44.3115234 510.498047,44.3115234 C522.070312,44.3115234 529.541016,53.6132812 529.541016,69.7998047 L529.541016,69.9462891 C529.541016,86.2060547 522.143555,95.5810547 510.644531,95.5810547 Z M578.613281,108.764648 L578.613281,3.07617188 L560.375977,3.07617188 L560.375977,108.764648 L578.613281,108.764648 Z M603.808594,19.9951172 C609.521484,19.9951172 613.916016,15.4541016 613.916016,10.0341797 C613.916016,4.46777344 609.521484,0 603.808594,0 C598.095703,0 593.62793,4.46777344 593.62793,10.0341797 C593.62793,15.4541016 598.095703,19.9951172 603.808594,19.9951172 Z M612.890625,108.764648 L612.890625,31.1279297 L594.65332,31.1279297 L594.65332,108.764648 L612.890625,108.764648 Z M662.695312,110.302734 C685.473633,110.302734 700.268555,95.1416016 700.268555,69.9462891 L700.268555,69.7998047 C700.268555,44.7509766 685.253906,29.5166016 662.62207,29.5166016 C640.063477,29.5166016 625.12207,44.8974609 625.12207,69.7998047 L625.12207,69.9462891 C625.12207,95.0683594 639.84375,110.302734 662.695312,110.302734 Z M662.768555,95.5810547 C651.123047,95.5810547 643.725586,86.2792969 643.725586,69.9462891 L643.725586,69.7998047 C643.725586,53.6865234 651.269531,44.3115234 662.62207,44.3115234 C674.194336,44.3115234 681.665039,53.6132812 681.665039,69.7998047 L681.665039,69.9462891 C681.665039,86.2060547 674.267578,95.5810547 662.768555,95.5810547 Z" id="Portfolio" fill="#000000"></path>
        </g>
    </g>
</svg>