<?xml version="1.0" encoding="UTF-8"?>
<svg width="204px" height="24px" viewBox="0 0 204 24" version="1.1" xmlns="http://www.w3.org/2000/svg" xmlns:xlink="http://www.w3.org/1999/xlink">
    <title>B’ Downloader</title>
    <g id="Web-Site" stroke="none" stroke-width="1" fill="none" fill-rule="evenodd">
        <g id="B’-Downloader" transform="translate(0.984375, 0.453125)" fill-rule="nonzero">
            <path d="M9.453125,22.546875 C14.265625,22.546875 17.1875,20.109375 17.1875,16.171875 L17.1875,16.140625 C17.1875,13.171875 15.03125,10.953125 11.859375,10.671875 L11.859375,10.59375 C14.28125,10.265625 16.109375,8.09375 16.109375,5.671875 L16.109375,5.640625 C16.109375,2.21875 13.46875,0 9.359375,0 L0,0 L0,22.546875 L9.453125,22.546875 Z M7.65625,9.53125 L4.03125,9.53125 L4.03125,3.140625 L8.34375,3.140625 C10.734375,3.140625 12.125,4.234375 12.125,6.1875 L12.125,6.21875 C12.125,8.34375 10.5625,9.53125 7.65625,9.53125 Z M8.53125,19.40625 L4.03125,19.40625 L4.03125,12.453125 L8.296875,12.453125 C11.453125,12.453125 13.078125,13.640625 13.078125,15.90625 L13.078125,15.9375 C13.078125,18.203125 11.484375,19.40625 8.53125,19.40625 Z M21.703125,8.28125 L23.984375,0 L20.203125,0 L18.984375,8.28125 L21.703125,8.28125 Z" id="B’" fill="#FF375F"></path>
            <path d="M41.8125,22.546875 C48.5625,22.546875 52.53125,18.359375 52.53125,11.21875 L52.53125,11.1875 C52.53125,4.0625 48.53125,0 41.8125,0 L33.578125,0 L33.578125,22.546875 L41.8125,22.546875 Z M41.390625,19.140625 L37.609375,19.140625 L37.609375,3.40625 L41.390625,3.40625 C45.875,3.40625 48.421875,6.171875 48.421875,11.203125 L48.421875,11.234375 C48.421875,16.375 45.921875,19.140625 41.390625,19.140625 Z M62.671875,22.875 C67.53125,22.875 70.6875,19.640625 70.6875,14.265625 L70.6875,14.234375 C70.6875,8.890625 67.484375,5.640625 62.65625,5.640625 C57.84375,5.640625 54.65625,8.921875 54.65625,14.234375 L54.65625,14.265625 C54.65625,19.625 57.796875,22.875 62.671875,22.875 Z M62.6875,19.734375 C60.203125,19.734375 58.625,17.75 58.625,14.265625 L58.625,14.234375 C58.625,10.796875 60.234375,8.796875 62.65625,8.796875 C65.125,8.796875 66.71875,10.78125 66.71875,14.234375 L66.71875,14.265625 C66.71875,17.734375 65.140625,19.734375 62.6875,19.734375 Z M80.390625,22.546875 L83.640625,10.4375 L83.71875,10.4375 L86.984375,22.546875 L91.078125,22.546875 L95.5625,5.984375 L91.71875,5.984375 L88.921875,18.703125 L88.828125,18.703125 L85.59375,5.984375 L81.859375,5.984375 L78.625,18.703125 L78.546875,18.703125 L75.75,5.984375 L71.84375,5.984375 L76.328125,22.546875 L80.390625,22.546875 Z M101.390625,22.546875 L101.390625,12.9375 C101.390625,10.546875 102.8125,8.921875 105.046875,8.921875 C107.265625,8.921875 108.359375,10.25 108.359375,12.609375 L108.359375,22.546875 L112.25,22.546875 L112.25,11.828125 C112.25,7.984375 110.171875,5.640625 106.53125,5.640625 C104.015625,5.640625 102.328125,6.796875 101.46875,8.578125 L101.390625,8.578125 L101.390625,5.984375 L97.5,5.984375 L97.5,22.546875 L101.390625,22.546875 Z M119.359375,22.546875 L119.359375,0 L115.46875,0 L115.46875,22.546875 L119.359375,22.546875 Z M130,22.875 C134.859375,22.875 138.015625,19.640625 138.015625,14.265625 L138.015625,14.234375 C138.015625,8.890625 134.8125,5.640625 129.984375,5.640625 C125.171875,5.640625 121.984375,8.921875 121.984375,14.234375 L121.984375,14.265625 C121.984375,19.625 125.125,22.875 130,22.875 Z M130.015625,19.734375 C127.53125,19.734375 125.953125,17.75 125.953125,14.265625 L125.953125,14.234375 C125.953125,10.796875 127.5625,8.796875 129.984375,8.796875 C132.453125,8.796875 134.046875,10.78125 134.046875,14.234375 L134.046875,14.265625 C134.046875,17.734375 132.46875,19.734375 130.015625,19.734375 Z M145.40625,22.828125 C147.59375,22.828125 149.4375,21.734375 150.390625,20 L150.484375,20 L150.484375,22.546875 L154.375,22.546875 L154.375,11.15625 C154.375,7.828125 151.703125,5.640625 147.5625,5.640625 C143.359375,5.640625 140.8125,7.84375 140.578125,10.78125 L140.5625,10.96875 L144.171875,10.96875 L144.203125,10.828125 C144.453125,9.609375 145.578125,8.75 147.421875,8.75 C149.390625,8.75 150.484375,9.765625 150.484375,11.4375 L150.484375,12.578125 L146.15625,12.84375 C142.140625,13.09375 139.859375,14.859375 139.859375,17.796875 L139.859375,17.828125 C139.859375,20.78125 142.09375,22.828125 145.40625,22.828125 Z M146.5625,19.859375 C144.859375,19.859375 143.734375,19.03125 143.734375,17.671875 L143.734375,17.65625 C143.734375,16.34375 144.78125,15.515625 146.703125,15.390625 L150.484375,15.15625 L150.484375,16.40625 C150.484375,18.375 148.796875,19.859375 146.5625,19.859375 Z M163.65625,22.875 C166.046875,22.875 167.875,21.6875 168.8125,19.734375 L168.90625,19.734375 L168.90625,22.546875 L172.796875,22.546875 L172.796875,0 L168.90625,0 L168.90625,8.828125 L168.8125,8.828125 C167.875,6.84375 165.984375,5.640625 163.640625,5.640625 C159.484375,5.640625 156.8125,8.90625 156.8125,14.25 L156.8125,14.265625 C156.8125,19.59375 159.46875,22.875 163.65625,22.875 Z M164.828125,19.59375 C162.328125,19.59375 160.78125,17.5625 160.78125,14.265625 L160.78125,14.25 C160.78125,10.953125 162.34375,8.921875 164.828125,8.921875 C167.21875,8.921875 168.90625,11.015625 168.90625,14.25 L168.90625,14.265625 C168.90625,17.515625 167.234375,19.59375 164.828125,19.59375 Z M183.34375,22.875 C187.671875,22.875 190.109375,20.3125 190.625,17.765625 L190.671875,17.59375 L187.03125,17.59375 L187,17.703125 C186.625,18.8125 185.359375,19.84375 183.421875,19.84375 C180.890625,19.84375 179.296875,18.125 179.234375,15.21875 L190.828125,15.21875 L190.828125,13.96875 C190.828125,8.96875 187.890625,5.640625 183.15625,5.640625 C178.421875,5.640625 175.375,9.078125 175.375,14.296875 L175.375,14.3125 C175.375,19.578125 178.375,22.875 183.34375,22.875 Z M187.046875,12.625 L179.28125,12.625 C179.59375,10.078125 181.140625,8.6875 183.203125,8.6875 C185.265625,8.6875 186.765625,10 187.046875,12.625 Z M197.21875,22.546875 L197.21875,12.9375 C197.21875,10.484375 198.546875,9.09375 200.75,9.09375 C201.40625,9.09375 202,9.1875 202.328125,9.3125 L202.328125,5.796875 C202.03125,5.71875 201.578125,5.640625 201.09375,5.640625 C199.1875,5.640625 197.8125,6.84375 197.296875,8.84375 L197.21875,8.84375 L197.21875,5.984375 L193.328125,5.984375 L193.328125,22.546875 L197.21875,22.546875 Z" id="Downloader" fill="#000000"></path>
        </g>
    </g>
</svg>